<?xml version="1.0" standalone="no"?>
<!DOCTYPE svg PUBLIC "-//W3C//DTD SVG 20010904//EN"
 "http://www.w3.org/TR/2001/REC-SVG-20010904/DTD/svg10.dtd">
<svg version="1.0" xmlns="http://www.w3.org/2000/svg"
 width="425.000000pt" height="239.000000pt" viewBox="0 0 425.000000 239.000000"
 preserveAspectRatio="xMidYMid meet">

<g fill="#fff" transform="translate(0.000000,239.000000) scale(0.100000,-0.100000)"
 stroke="none">
<path d="M1410 1220 l0 -1120 45 0 45 0 0 1120 0 1120 -45 0 -45 0 0 -1120z"/>
<path d="M1922 2250 c-67 -14 -159 -69 -211 -126 -173 -189 -174 -528 -3 -623
62 -33 150 -39 225 -14 69 24 68 30 33 -125 -41 -183 -72 -232 -142 -232 -78
0 -112 104 -53 159 27 25 61 31 97 15 35 -14 42 -10 42 23 0 53 -42 83 -117
83 -93 0 -164 -93 -148 -196 12 -83 81 -137 175 -137 141 2 225 64 279 206 15
42 116 485 124 547 2 12 -12 15 -73 15 l-75 0 -23 -100 c-13 -55 -27 -110 -32
-122 -14 -34 -56 -56 -107 -55 -92 1 -143 74 -143 207 0 95 18 163 67 258 65
123 161 192 236 168 58 -19 74 -85 36 -155 -25 -47 -15 -57 50 -54 57 4 84 37
83 103 -1 97 -72 153 -203 160 -41 2 -93 0 -117 -5z"/>
<path d="M3596 2185 c-50 -47 -25 -145 41 -158 35 -7 88 15 102 41 51 95 -65
189 -143 117z"/>
<path d="M3974 2130 c-29 -4 -56 -10 -62 -14 -5 -3 -15 -34 -21 -68 -17 -91
-20 -98 -41 -98 -10 0 -21 -7 -24 -16 -8 -22 -8 -24 8 -24 8 0 17 -4 20 -8 10
-17 -73 -372 -94 -402 -40 -56 -98 -78 -128 -48 -19 19 -14 61 33 283 25 115
45 211 45 212 0 2 -38 3 -84 3 -72 0 -85 -3 -90 -17 -3 -10 -21 -97 -41 -193
-20 -96 -43 -192 -52 -213 -36 -83 -105 -114 -139 -62 -15 23 -14 33 15 164
35 155 38 218 16 261 -37 72 -164 82 -232 18 -24 -22 -27 -19 -23 20 1 21 -2
22 -84 22 l-85 0 -11 -57 c-21 -103 -21 -105 -56 -119 -18 -8 -46 -14 -62 -14
-27 0 -30 3 -34 43 -7 57 -34 112 -66 134 -40 27 -153 24 -210 -6 -92 -47
-161 -147 -197 -286 -27 -104 -17 -211 24 -259 27 -32 92 -56 152 -56 139 0
265 137 286 312 3 27 11 52 17 56 16 13 97 34 103 28 3 -3 -12 -90 -34 -193
-22 -103 -38 -191 -36 -195 2 -5 40 -8 83 -8 l79 0 10 38 c5 20 23 107 41 192
42 209 64 260 116 280 34 13 52 3 63 -35 9 -33 4 -70 -33 -240 -20 -89 -20
-129 -1 -169 21 -44 62 -66 126 -66 57 0 130 34 149 70 14 27 29 25 40 -4 16
-43 57 -66 117 -66 66 0 109 17 161 64 l40 36 12 -30 c21 -50 55 -70 118 -70
99 0 172 52 227 161 23 45 24 50 8 56 -11 4 -20 0 -27 -13 -6 -10 -27 -36 -47
-56 -55 -57 -119 -50 -119 12 0 23 74 379 85 408 2 6 20 12 40 12 28 0 35 4
35 20 0 16 -7 20 -30 20 -35 0 -36 5 -15 100 22 101 27 97 -91 80z m-1330
-273 c8 -21 6 -34 -7 -56 -22 -37 -22 -87 -1 -99 15 -8 15 -15 4 -63 -27 -114
-91 -209 -141 -209 -40 0 -59 35 -59 108 0 119 59 286 117 332 37 29 75 23 87
-13z"/>
<path fill="#42b983" d="M1068 1785 c-10 -16 -123 -220 -250 -452 -128 -233 -236 -423 -239
-423 -3 0 -54 125 -114 278 -59 152 -112 282 -117 289 -7 8 -38 3 -121 -19
-62 -17 -114 -32 -116 -34 -2 -2 0 -24 3 -49 l7 -46 55 3 55 3 131 -345 c72
-190 135 -351 141 -358 10 -13 124 -17 143 -4 12 8 654 1158 654 1172 0 5 -48
10 -107 12 l-106 3 -19 -30z"/>
<path d="M2226 963 c-2 -10 -7 -34 -11 -53 -4 -19 -11 -52 -17 -74 l-9 -39
-33 32 c-28 27 -39 31 -89 31 -71 0 -107 -18 -132 -63 l-18 -35 -32 34 c-49
51 -93 65 -203 65 -52 0 -96 -2 -98 -4 -2 -2 -1 -19 2 -39 l6 -35 127 -5 c69
-3 134 -9 144 -13 30 -12 19 -30 -30 -47 -97 -35 -233 -132 -233 -166 0 -61
11 -80 54 -91 92 -23 156 -92 156 -168 l0 -44 52 3 52 3 46 225 c56 268 55
266 85 286 28 18 96 11 119 -12 14 -14 14 -17 -67 -391 l-25 -113 52 0 51 0
58 277 c31 152 60 279 62 282 3 2 11 -3 18 -11 9 -13 38 -17 142 -20 124 -4
183 -17 170 -38 -3 -5 -28 -16 -56 -25 -51 -17 -181 -99 -211 -132 -12 -13
-14 -29 -9 -63 6 -44 7 -45 64 -65 91 -31 147 -99 147 -175 0 -29 1 -30 48
-30 l49 0 37 188 c57 284 66 314 98 330 31 14 86 8 115 -13 16 -12 14 -25 -31
-236 -26 -123 -50 -234 -53 -246 -5 -22 -2 -23 46 -23 28 0 51 4 51 8 0 16
112 537 117 545 3 5 14 1 24 -9 26 -23 34 -11 23 34 -7 28 -15 38 -32 40 -25
4 -52 52 -52 92 0 11 -6 20 -13 20 -9 0 -20 -32 -31 -90 -11 -49 -21 -90 -23
-90 -3 0 -18 14 -33 30 -26 28 -33 30 -95 30 -62 0 -69 -2 -99 -32 -18 -18
-35 -40 -38 -48 -4 -11 -16 -5 -51 27 -51 47 -64 50 -216 56 -94 4 -106 6
-123 27 -10 12 -18 37 -18 56 0 37 -25 49 -34 17z m-341 -365 c-3 -13 -14 -63
-24 -111 -11 -49 -22 -91 -25 -94 -2 -3 -12 12 -21 33 -8 22 -32 54 -53 72
l-37 33 30 25 c39 32 95 63 118 64 13 0 16 -6 12 -22z m745 9 c0 -12 -36 -188
-44 -212 -1 -5 -12 9 -24 32 -12 22 -38 55 -59 72 -36 30 -37 31 -18 46 79 64
145 92 145 62z"/>
</g>
</svg>
